<?xml version="1.0" standalone="no"?><!DOCTYPE svg PUBLIC "-//W3C//DTD SVG 1.1//EN" "http://www.w3.org/Graphics/SVG/1.1/DTD/svg11.dtd"><svg t="1607754460067" class="icon" viewBox="0 0 1024 1024" version="1.1" xmlns="http://www.w3.org/2000/svg" p-id="4924" xmlns:xlink="http://www.w3.org/1999/xlink" width="128" height="128"><defs><style type="text/css"></style></defs><path d="M275.64032 269.78304c-15.79008 0-21.34016-14.47936-23.36768-19.968-4.13696-7.59808-8.97024-15.17568-13.06624-22.03648l2.02752-7.5776-4.83328 2.7648c-17.89952-18.59584-11.03872-31.68256-5.50912-37.82656a30.86336 30.86336 0 0 1 23.36768-10.32192c6.22592 0 13.08672 2.08896 19.29216 4.8128 19.94752 10.3424 31.62112 26.84928 31.62112 44.7488 0 13.7216-1.3312 37.84704-22.69184 44.01152a23.2448 23.2448 0 0 1-6.84032 1.39264m698.96192 705.86368c-8.94976 0-15.81056-5.5296-20.60288-8.94976-19.31264-13.824-37.84704-23.40864-57.79456-33.71008-20.60288-10.3424-41.94304-20.64384-61.21472-35.10272-21.31968-15.79008-46.05952-36.47488-62.58688-67.44064-2.72384-4.79232-11.01824-19.84512-5.5296-35.00032 4.79232-12.98432 17.89952-18.55488 26.84928-21.27872 28.11904-8.97024 60.45696-18.59584 95.62112-19.968l-2.08896-1.35168c-40.61184-30.28992-77.1072-57.81504-121.11872-68.11648-60.47744-14.47936-86.65088-55.05024-104.61184-93.55264a1498.68544 1498.68544 0 0 1-33.03424-75.69408c-22.75328-54.39488-46.14144-110.05952-79.81056-159.62112a537.62048 537.62048 0 0 0-203.59168-183.68512c-22.7328-11.69408-52.96128-24.76032-86.69184-24.76032h-5.46816c-27.50464 0-50.21696-8.97024-70.84032-27.50464-17.22368-15.17568-39.2192-23.42912-62.62784-32.37888l-11.03872-4.11648a32.33792 32.33792 0 0 0-10.99776-2.7648c-5.50912 2.7648-7.59808 5.48864 0 17.92 11.69408 17.16224 24.76032 35.75808 39.19872 55.66464 26.86976 35.79904 41.28768 76.3904 50.23744 107.3152 13.02528 44.70784 27.50464 79.83104 55.02976 108.032 25.45664 26.13248 12.36992 55.72608 4.17792 74.9568l-7.59808 3.42016 4.8128 2.08896c-23.36768 54.35392-23.36768 112.14848 0.69632 186.42944 2.10944 6.20544 4.83328 12.45184 8.27392 17.16224l0.69632 0.79872c3.44064-34.4064 6.8608-72.31488 34.4064-104.5504 6.16448-10.36288 13.76256-22.03648 28.89728-22.03648 21.34016 2.048 24.76032 19.94752 26.15296 26.13248 26.80832 72.92928 66.68288 136.21248 102.48192 189.87008 2.7648 4.87424 3.42016 10.38336 1.39264 15.17568-2.06848 4.77184-6.8608 8.97024-11.69408 9.6256-2.72384 0.75776-6.20544 0.75776-8.94976 0.75776-19.98848 0-32.33792-12.45184-68.15744-52.34688-11.01824-11.63264-18.5344-25.45664-25.43616-37.86752l-5.5296-8.94976a114.0736 114.0736 0 0 1-2.72384 17.87904c-8.25344 31.60064-29.5936 50.91328-55.05024 50.91328-15.81056 0-31.66208-7.65952-46.10048-22.03648-31.66208-32.31744-48.82432-73.66656-55.05024-130.6624-6.16448-57.09824 0-110.7968 18.59584-160.29696 4.79232-13.76256 4.79232-20.62336-4.8128-32.37888-33.01376-39.89504-48.8448-89.41568-61.87008-136.92928-11.03872-30.22848-27.5456-55.68512-49.52064-84.5824-16.52736-21.34016-30.98624-39.936-38.54336-64.69632-6.92224-24.73984-3.4816-48.82432 9.58464-66.72384S75.38688 12.55424 100.18816 12.55424c52.92032 0 94.94528 26.86976 130.02752 51.58912l5.5296 4.096c6.16448 4.83328 9.64608 7.59808 13.76256 7.59808 110.71488 0 190.58688 62.60736 262.81984 126.5664 70.88128 62.62784 126.60736 141.04576 160.93184 228.43392 14.47936 36.4544 31.60064 72.25344 48.8448 107.27424 8.23296 16.52736 16.50688 33.6896 24.04352 50.8928 4.21888 8.97024 10.38336 14.4384 20.66432 18.5344 86.016 35.10272 154.78784 83.2512 210.57536 146.55488 8.21248 9.0112 16.44544 21.31968 12.30848 34.44736-4.7104 15.13472-20.60288 19.27168-31.5392 21.27872-14.4384 3.44064-29.67552 5.5296-44.01152 8.21248-16.4864 2.7648-33.64864 4.83328-50.23744 9.66656 6.8608 6.144 14.47936 10.3424 21.2992 13.78304 32.37888 15.83104 56.5248 41.2672 79.19616 65.31072 7.53664 7.68 13.0048 13.824 18.51392 19.23072 20.66432 20.76672 11.63264 35.88096 8.21248 39.99744-2.72384 6.18496-8.9088 9.6256-16.52736 9.6256" p-id="4925"></path></svg>