<?xml version="1.0" standalone="no"?><!DOCTYPE svg PUBLIC "-//W3C//DTD SVG 1.1//EN" "http://www.w3.org/Graphics/SVG/1.1/DTD/svg11.dtd"><svg t="1607753546984" class="icon" viewBox="0 0 1024 1024" version="1.1" xmlns="http://www.w3.org/2000/svg" p-id="3141" xmlns:xlink="http://www.w3.org/1999/xlink" width="128" height="128"><defs><style type="text/css"></style></defs><path d="M881.536 134.912L514.432 0.896 512 0 144 134.4c-28.672 3.712-50.304 28.28800001-50.304 57.216L93.696 677.12c0 34.432 68.352 118.784 131.712 177.408 76.288 70.656 244.864 151.168 279.04 167.168 1.92 0.768 3.712 1.408 5.76 1.92l2.048 0.384 1.792-0.512c1.792-0.512 3.712-1.024 5.632-1.91999999 1.92-0.89600001 195.328-89.6 278.912-167.04000001 63.36-58.496 131.712-143.104 131.712-177.408L930.304 191.744c0-28.8-21.632-53.376-48.768-56.832z m-25.984 536.70400001c-6.656 13.31200001-39.552 65.152-107.64800001 128.12799999-57.344 52.992-182.52800001 116.736-233.47199999 141.568L512 942.336l-2.048-0.896c-51.2-24.96-176.384-88.576-233.72800001-141.696-68.096-62.976-100.992-114.81599999-107.64799999-128.128l0-466.56L512 79.744l343.552 125.31200001 0 466.56z" p-id="3142"></path><path d="M370.048 385.536c0 66.04799999 45.31199999 121.472 106.496 137.21600001l0 236.03199999c0 17.792 15.872 32.384 35.456 32.384 19.584 0 35.456-14.464 35.456-32.384L547.456 654.976 620.8 654.976c17.792 0 32.25599999-15.872 32.256-35.456 0-19.584-14.464-35.456-32.256-35.456l-73.34400001 0 1e-8-61.31199999c61.056-15.744 106.496-71.296 106.496-137.21600001 0-78.336-63.616-141.952-141.952-141.952-78.336-0.128-141.952 63.744-141.952 141.952z m223.104 0c0 44.672-36.352 81.152-81.152 81.152-44.672 0-81.152-36.352-81.152-81.152 0-44.672 36.352-81.152 81.152-81.152 44.672 0.128 81.152 36.48 81.152 81.152z" p-id="3143"></path></svg>