<?xml version="1.0" standalone="no"?><!DOCTYPE svg PUBLIC "-//W3C//DTD SVG 1.1//EN" "http://www.w3.org/Graphics/SVG/1.1/DTD/svg11.dtd"><svg t="1607754616400" class="icon" viewBox="0 0 1024 1024" version="1.1" xmlns="http://www.w3.org/2000/svg" p-id="6597" xmlns:xlink="http://www.w3.org/1999/xlink" width="128" height="128"><defs><style type="text/css"></style></defs><path d="M473.522664 556.322461v117.770264c0 20.630876 16.724917 37.356816 37.356816 37.356816 20.630876 0 37.356816-16.724917 37.356816-37.356816V556.322461c50.519604-15.867386 87.165222-63.064314 87.165222-118.820176 0-68.771293-55.749722-124.521015-124.521015-124.521014S386.359488 368.730992 386.359488 437.502285c-0.002047 55.754838 36.643572 102.95279 87.163176 118.820176zM907.410632 234.070037c2.998287 45.319162 2.50096 90.438779-1.40193 133.956921-14.406105 161.726382-67.125817 301.592896-156.861584 415.696653-57.520041 73.393567-128.644939 130.844024-211.17663 170.450067-8.80248 4.210905-17.708314 6.316869-26.612101 6.316869-9.299807 0-18.708084-2.306532-28.007891-6.819312-74.42813-35.895535-139.954519-86.729294-194.873316-151.0973-68.824505-80.81356-118.643144-178.474834-147.755182-290.366204-18.010189-69.083401-27.510564-143.077649-28.311812-220.083487v-0.401136l0.900509-19.549242c0.703011-14.838963 1.302669-29.676903 2.4017-44.418652 2.197038-31.181163 26.308179-56.149834 56.222489-58.152445 7.800663-0.503467 15.601326-0.904603 23.406083-1.305738 14.004969-0.699941 28.010961-1.400906 42.017976-3.006474 84.72873-9.727549 164.661224-39.705304 237.6864-89.234347 18.307971-12.435217 37.216623-15.343453 56.222489-8.524141 4.801353 1.703805 9.700943 4.411473 15.102977 8.019651 64.526619 43.717687 135.554302 72.691579 211.080439 85.929068 27.309996 4.812609 55.621808 7.319709 86.633103 7.818059 35.913954 0.603751 60.82532 25.972535 63.326281 64.77119z" p-id="6598"></path></svg>