<?xml version="1.0" standalone="no"?><!DOCTYPE svg PUBLIC "-//W3C//DTD SVG 1.1//EN" "http://www.w3.org/Graphics/SVG/1.1/DTD/svg11.dtd"><svg t="1607754519469" class="icon" viewBox="0 0 1024 1024" version="1.1" xmlns="http://www.w3.org/2000/svg" p-id="5684" xmlns:xlink="http://www.w3.org/1999/xlink" width="128" height="128"><defs><style type="text/css"></style></defs><path d="M486.098824 472.244706a236.122353 236.122353 0 1 1 236.122352-236.122353A236.122353 236.122353 0 0 1 486.098824 472.244706zM486.098824 60.235294a175.887059 175.887059 0 1 0 175.887058 175.887059A175.887059 175.887059 0 0 0 486.098824 60.235294z" p-id="5685"></path><path d="M389.722353 911.36H46.381176a30.117647 30.117647 0 0 1-30.117647-30.117647 470.437647 470.437647 0 0 1 469.835295-469.835294 30.117647 30.117647 0 0 1 0 60.235294 409.6 409.6 0 0 0-409.6 379.482353h313.223529a30.117647 30.117647 0 0 1 0 60.235294z" p-id="5686"></path><path d="M734.268235 1024a301.176471 301.176471 0 0 1-48.790588-4.216471 30.117647 30.117647 0 0 1-23.491765-19.877647l-19.275294-57.223529a53.007059 53.007059 0 0 0-55.41647-34.334118l-63.247059 9.637647A29.515294 29.515294 0 0 1 498.145882 909.552941a114.447059 114.447059 0 0 1-22.287058-31.322353 228.894118 228.894118 0 0 1-18.070589-34.93647 30.117647 30.117647 0 0 1 4.818824-30.72l40.357647-47.585883a52.404706 52.404706 0 0 0 0-63.247059l-40.357647-46.983529a30.117647 30.117647 0 0 1-4.216471-33.129412l3.614118-7.830588a257.204706 257.204706 0 0 1 36.141176-56.018823 31.322353 31.322353 0 0 1 27.708236-10.24l60.235294 9.637647a52.404706 52.404706 0 0 0 56.621176-31.924706l21.684706-60.235294a30.117647 30.117647 0 0 1 22.889412-19.275295 289.129412 289.129412 0 0 1 95.171765 0 30.117647 30.117647 0 0 1 23.491764 19.877648l19.275294 54.814117a53.007059 53.007059 0 0 0 55.416471 34.936471l60.235294-7.228236a30.117647 30.117647 0 0 1 27.708235 12.047059 180.705882 180.705882 0 0 1 18.672942 29.515294c7.228235 12.047059 12.047059 21.684706 16.865882 31.322353a31.322353 31.322353 0 0 1-3.614118 33.731765l-40.357647 47.585882a52.404706 52.404706 0 0 0 0 63.247059l37.948236 45.176471a30.117647 30.117647 0 0 1 5.421176 28.912941 247.567059 247.567059 0 0 1-32.527059 63.849412 30.117647 30.117647 0 0 1-29.515294 12.047059l-60.235294-9.637647a50.597647 50.597647 0 0 0-54.211765 31.924705l-21.684706 60.235295a30.117647 30.117647 0 0 1-23.491764 19.275294 301.176471 301.176471 0 0 1-47.585883 6.625882z m-21.082353-60.235294a251.783529 251.783529 0 0 0 43.369412 0l15.058824-42.164706a110.832941 110.832941 0 0 1 120.470588-71.68l39.152941 6.023529a188.536471 188.536471 0 0 0 10.24-18.672941l-26.503529-31.322353a112.64 112.64 0 0 1 0-140.950588l27.708235-32.527059-6.625882-11.444706-4.216471-7.228235-43.971765 4.818824a113.844706 113.844706 0 0 1-120.470588-75.294118l-12.649412-36.743529a235.52 235.52 0 0 0-40.96 0L696.922353 542.117647a110.230588 110.230588 0 0 1-124.084706 71.077647l-40.357647-6.625882c-3.614118 6.023529-7.228235 13.251765-10.842353 19.877647l27.708235 32.527059a112.64 112.64 0 0 1 0 140.950588l-28.310588 33.129412 7.228235 12.649411 3.614118 6.625883 46.983529-7.228236a113.844706 113.844706 0 0 1 120.470589 74.691765z" p-id="5687"></path><path d="M731.858824 832.451765a98.183529 98.183529 0 1 1 98.183529-98.18353 98.785882 98.785882 0 0 1-98.183529 98.18353z m0-136.734118a37.948235 37.948235 0 1 0 37.948235 37.948235 37.948235 37.948235 0 0 0-37.948235-37.948235z" p-id="5688"></path></svg>